<?xml version="1.0" standalone="no"?>
<!DOCTYPE svg PUBLIC "-//W3C//DTD SVG 20010904//EN"
 "http://www.w3.org/TR/2001/REC-SVG-20010904/DTD/svg10.dtd">
<svg version="1.0" xmlns="http://www.w3.org/2000/svg"
 width="4665.000000pt" height="4665.000000pt" viewBox="0 0 4665.000000 4665.000000"
 preserveAspectRatio="xMidYMid meet">

<g transform="translate(0.000000,4665.000000) scale(0.100000,-0.100000)"
fill="#000000" stroke="none">
<path d="M22500 39018 c-113 -122 -208 -227 -212 -234 -6 -9 93 -12 457 -10
256 0 465 1 465 2 0 3 -493 460 -498 462 -4 1 -100 -98 -212 -220z"/>
<path d="M22200 38690 l-32 -40 36 0 c35 0 36 1 36 40 0 22 -2 40 -4 40 -2 0
-19 -18 -36 -40z"/>
<path d="M20295 36245 c-170 -13 -1088 -78 -2040 -144 -951 -67 -1749 -124
-1772 -127 l-43 -5 0 -125 0 -124 9625 0 9625 0 0 -8695 0 -8695 125 0 124 0
5 33 c3 17 49 543 101 1167 53 624 125 1479 160 1900 l65 765 -3 7035 -2 7035
-7830 1 -7830 1 -310 -22z"/>
<path d="M12579 29008 c-1 -798 -1 -10827 0 -11565 l1 -493 9837 -2 c9360 -3
9838 -4 9841 -20 3 -16 -5 -18 -62 -18 l-66 0 0 -35 0 -35 59 0 c33 0 63 -4
66 -10 3 -5 33 -10 66 -10 52 0 59 -2 59 -20 0 -18 -7 -20 -60 -20 l-60 0 0
-40 0 -40 61 0 c57 0 60 -1 57 -22 -3 -20 -10 -23 -60 -26 -57 -3 -58 -4 -58
-32 0 -30 0 -30 58 -30 l59 0 135 143 c74 78 149 159 167 179 l33 38 681 2
682 3 3 733 2 734 152 166 153 167 -68 3 -67 3 0 59 0 60 -65 0 -65 0 0 65 c0
58 -2 65 -20 65 -20 0 -20 7 -20 4608 0 2535 -3 4940 -7 5345 l-6 737 -1004 0
-1003 0 0 -125 0 -125 887 0 886 0 -6 -377 c-4 -207 -7 -2416 -7 -4910 l0
-4533 -28 0 -29 0 -6 98 c-4 53 -7 195 -7 315 l0 217 -58 0 -59 0 -6 467 c-9
604 -9 5204 0 5829 l6 479 59 -3 58 -4 0 251 0 250 -57 4 -58 3 58 2 57 2 0
70 0 70 -54 0 -54 0 -6 58 c-4 31 -9 83 -12 114 l-6 57 69 4 68 3 -67 2 -68 2
0 45 0 45 65 0 c51 0 65 3 65 15 0 12 -14 15 -65 15 l-65 0 0 65 0 65 -60 0
-60 0 0 45 0 45 60 0 c47 0 60 3 60 15 0 13 -21 15 -125 15 l-125 0 0 50 0 50
65 0 c51 0 65 3 65 15 0 12 -16 15 -85 15 l-85 0 -1 -4702 c-1 -2587 -3 -5013
-5 -5393 l-4 -690 -855 -3 -855 -2 0 -24 c0 -14 5 -28 10 -31 6 -4 7 -28 4
-61 l-7 -54 66 0 66 0 3 -67 3 -68 58 -3 57 -3 0 -59 0 -60 -8242 2 c-4534 1
-8185 4 -8115 5 l128 4 -3 32 c-3 32 -3 32 -65 35 -45 2 -63 7 -63 16 0 10 22
16 78 20 42 3 1363 9 2934 12 l2857 7 3 56 3 56 253 9 252 9 0 48 0 49 54 0
c30 0 58 5 61 10 4 6 58 10 131 10 l124 0 0 54 0 53 92 7 c50 3 114 6 143 6
l52 0 6 98 c9 127 9 1107 0 1340 -6 168 -8 182 -25 182 -15 0 -18 -8 -18 -55
l0 -55 -245 0 -245 0 0 -790 0 -790 -4131 0 -4130 0 3 -27 c3 -27 5 -28 66
-28 52 0 63 -3 68 -18 9 -27 0 -31 -66 -28 l-60 2 0 -35 0 -35 63 -3 62 -3 0
-65 0 -65 58 -1 c31 -1 60 -3 62 -6 3 -2 1 -31 -4 -64 -8 -55 -9 -56 -10 -16
l-1 42 -50 0 -50 0 0 -40 c0 -22 -4 -40 -10 -40 -5 0 -10 16 -10 35 l0 35 -55
0 -55 0 0 -35 c0 -19 -4 -35 -10 -35 -5 0 -10 16 -10 35 l0 35 -50 0 c-50 0
-50 0 -50 -32 l0 -33 -414 -4 -414 -3 0 6126 0 6126 5504 0 5504 0 0 125 0
125 -5625 0 -5625 0 -1 -692z m21238 -11805 c-2 -2 -197 -2 -432 -1 l-428 3
279 300 c153 166 347 374 429 464 l150 164 3 -463 c1 -255 1 -465 -1 -467z
m-19810 215 c-3 -7 -5 -2 -5 12 0 14 2 19 5 13 2 -7 2 -19 0 -25z m143 -123
c0 -8 -4 -17 -10 -20 -6 -4 -10 5 -10 20 0 15 4 24 10 20 6 -3 10 -12 10 -20z
m107 -7 c-3 -8 -6 -5 -6 6 -1 11 2 17 5 13 3 -3 4 -12 1 -19z"/>
<path d="M24193 29575 l42 -125 3745 0 3745 0 39 113 c22 61 41 118 44 125 3
9 -766 12 -3826 12 l-3830 0 41 -125z"/>
<path d="M33330 28525 c0 -8 9 -15 20 -15 11 0 20 7 20 15 0 8 -9 15 -20 15
-11 0 -20 -7 -20 -15z"/>
<path d="M10586 28308 c-3 -18 -33 -537 -66 -1153 -34 -616 -79 -1444 -100
-1840 l-40 -720 0 -7062 0 -7063 7798 0 c7596 0 7806 1 8142 20 190 11 1092
60 2005 110 913 49 1684 93 1713 96 l52 5 0 125 0 124 -9625 0 -9625 0 0 8695
0 8695 -125 0 -124 0 -5 -32z"/>
<path d="M21780 27230 l0 -692 103 7 c56 4 105 9 110 12 4 2 7 29 7 59 l0 54
65 0 64 0 3 63 3 62 57 3 57 3 3 57 3 57 68 3 67 3 0 64 0 65 80 0 80 0 0 60
c0 53 -2 60 -20 60 -18 0 -20 7 -20 65 l0 64 -62 3 -63 3 -3 53 -3 52 -58 0
c-68 0 -71 4 -71 86 l0 54 -55 0 -55 0 0 60 0 60 -65 0 -65 0 0 65 0 65 -60 0
-59 0 -3 58 -3 57 -52 3 -53 3 0 -691z"/>
<path d="M26108 27470 c14 -43 27 -78 28 -77 1 1 -1 37 -3 80 -5 72 -7 77 -28
77 l-23 0 26 -80z"/>
<path d="M26170 27292 c0 -4 25 -79 55 -167 52 -151 55 -157 51 -100 -3 33 -8
108 -12 168 l-7 107 -43 0 c-24 0 -44 -3 -44 -8z"/>
<path d="M26337 26778 c25 -79 49 -149 53 -157 7 -14 2 262 -5 287 -3 7 -22
12 -49 12 l-44 0 45 -142z"/>
<path d="M26425 26513 c8 -27 34 -106 59 -178 l44 -130 -5 155 c-6 210 -3 200
-63 200 l-49 0 14 -47z"/>
<path d="M15900 25600 l0 -920 251 0 252 0 -6 83 c-4 45 -7 97 -7 115 l0 32
-55 0 -55 0 0 130 0 130 55 0 55 0 1 48 c1 26 4 110 8 187 l6 140 57 3 57 3 3
62 3 62 58 3 57 3 0 52 c0 29 5 58 12 65 7 7 36 12 65 12 l53 0 0 55 0 54 68
3 67 3 3 58 3 57 42 1 c23 1 105 4 182 8 l140 6 3 51 3 52 252 6 c139 3 914 8
1722 11 809 3 1559 8 1668 12 l197 6 0 49 0 48 43 1 c23 1 107 4 187 8 l145 6
3 56 3 56 127 9 127 9 3 36 3 36 -752 6 c-414 4 -1733 7 -2931 7 l-2178 0 0
-920z"/>
<path d="M26540 26177 c0 -7 24 -84 54 -172 l54 -160 -5 160 c-3 88 -6 166 -8
173 -6 17 -95 16 -95 -1z"/>
<path d="M26664 25795 c3 -9 29 -88 57 -176 28 -88 53 -159 54 -157 2 2 0 80
-3 173 l-7 170 -54 3 c-46 3 -53 1 -47 -13z"/>
<path d="M26837 25268 c30 -95 57 -175 59 -177 4 -4 -7 321 -12 337 -2 7 -22
12 -53 12 l-49 0 55 -172z"/>
<path d="M26910 25052 c0 -4 27 -86 59 -182 l59 -175 -5 170 c-2 94 -6 176 -9
183 -4 13 -104 18 -104 4z"/>
<path d="M27088 24510 c31 -93 57 -168 58 -167 1 1 0 77 -3 170 l-6 167 -53 0
-52 0 56 -170z"/>
<path d="M38753 23920 l2 -452 40 45 c22 24 121 131 220 237 99 105 181 195
183 199 1 4 -77 81 -175 171 -98 90 -199 183 -225 208 l-46 44 1 -452z"/>
<path d="M27164 24285 c3 -8 28 -87 57 -176 28 -88 52 -159 54 -157 2 2 1 81
-2 176 l-6 172 -55 0 c-44 0 -53 -3 -48 -15z"/>
<path d="M27285 23918 c5 -14 713 -2167 718 -2182 2 -5 57 152 124 350 111
331 120 363 116 417 l-5 57 -58 0 c-33 0 -62 5 -65 10 -3 6 -33 10 -66 10
l-59 0 0 65 0 65 -45 0 -44 0 -3 58 -3 57 -56 3 -56 3 -9 122 -9 122 -57 3
-56 3 -7 124 -7 125 -53 0 -52 0 -7 98 c-3 53 -9 129 -12 169 l-7 72 -56 3
-56 3 -3 128 -3 127 -54 0 c-39 0 -53 -4 -50 -12z"/>
<path d="M21400 22955 l0 -495 44 0 43 0 13 180 13 180 54 0 53 0 0 130 0 130
-53 0 -54 0 -13 185 -13 185 -43 0 -44 0 0 -495z"/>
<path d="M7648 22996 c-131 -140 -238 -257 -238 -259 0 -6 467 -437 473 -437
3 0 4 214 3 475 0 261 -1 475 -1 475 0 0 -107 -115 -237 -254z"/>
<path d="M25081 20348 l-1 -2638 29 0 29 0 7 120 7 119 57 3 56 3 9 123 9 122
47 0 47 0 6 103 c4 56 10 198 13 315 l7 212 52 0 52 0 7 213 c3 116 9 258 13
315 l6 102 47 0 48 0 8 123 9 122 57 3 56 3 6 57 c3 31 8 82 12 113 l6 56 75
7 c42 3 113 6 159 6 l83 0 -504 1508 c-278 829 -507 1512 -509 1517 -3 6 -5
-1177 -5 -2627z"/>
<path d="M30192 21178 c-331 -959 -721 -2089 -867 -2513 -146 -423 -286 -830
-311 -902 l-46 -133 -479 0 -479 0 -13 -32 -14 -33 -7 33 -8 32 -159 0 -159 0
0 -24 c0 -23 2 -24 120 -31 l120 -7 0 -53 0 -52 167 -6 c211 -9 391 -9 621 0
l181 6 3 51 3 51 123 9 122 9 0 63 0 64 65 0 65 0 0 54 c0 30 5 58 10 61 6 3
10 33 10 65 l0 59 53 3 52 3 5 60 5 60 56 3 57 3 7 119 7 119 57 3 56 3 3 122
3 122 62 3 62 3 5 125 5 125 51 3 51 3 9 122 9 122 56 3 56 3 9 122 9 122 57
3 57 3 3 67 3 67 56 3 56 3 9 112 9 112 58 3 57 3 0 64 0 64 63 3 62 3 3 58 3
57 149 0 150 0 0 1485 c0 817 -2 1485 -3 1485 -2 0 -274 -784 -605 -1742z"/>
<path d="M15900 21155 l0 -1085 251 0 c164 0 248 3 244 10 -3 6 -30 10 -59 10
l-53 0 -6 83 c-9 106 -9 827 0 934 l6 82 56 3 56 3 5 70 5 70 52 3 51 3 6 57
c4 31 9 83 12 115 l6 57 53 0 c30 0 57 5 60 10 3 6 33 10 66 10 l59 0 0 55 0
55 54 0 c81 0 86 4 86 65 l0 52 83 6 c45 4 128 10 185 13 l102 7 0 47 0 47 98
6 c53 4 678 7 1387 7 710 0 1422 3 1583 7 l292 6 0 52 0 52 92 7 c50 3 126 6
169 6 105 0 109 2 109 60 l0 48 63 6 c171 17 177 18 177 32 0 12 -379 14
-2675 14 l-2675 0 0 -1085z"/>
<path d="M13650 17605 c0 -23 3 -25 50 -25 47 0 50 2 50 25 0 23 -3 25 -50 25
-47 0 -50 -2 -50 -25z"/>
<path d="M23130 17605 l0 -25 124 0 c73 0 127 -4 131 -10 3 -5 31 -10 61 -10
l54 0 0 -48 0 -49 218 -7 c119 -3 261 -9 315 -13 l97 -6 0 -53 0 -54 125 0
124 0 3 58 3 57 145 6 c80 4 166 7 193 8 l47 1 0 50 0 50 54 0 c30 0 58 5 61
10 3 6 35 10 71 10 62 0 64 1 64 25 l0 25 -945 0 -945 0 0 -25z"/>
<path d="M13650 17490 c0 -29 1 -30 50 -30 49 0 50 1 50 30 0 29 -1 30 -50 30
-49 0 -50 -1 -50 -30z"/>
<path d="M13770 17370 l0 -40 55 0 55 0 0 40 0 40 -55 0 -55 0 0 -40z"/>
<path d="M13310 17266 c0 -3 14 -14 30 -26 l30 -21 0 25 c0 22 -4 26 -30 26
-16 0 -30 -2 -30 -4z"/>
<path d="M13720 16885 c13 -14 25 -25 27 -25 2 0 3 11 3 25 0 20 -5 25 -27 25
l-26 0 23 -25z"/>
<path d="M13770 16870 c0 -30 1 -30 55 -30 54 0 55 0 55 30 0 30 -1 30 -55 30
-54 0 -55 0 -55 -30z"/>
<path d="M13855 16760 c10 -11 20 -20 22 -20 1 0 3 9 3 20 0 14 -7 20 -22 20
-20 0 -21 -1 -3 -20z"/>
<path d="M32260 16493 l0 -26 25 23 c14 13 25 25 25 27 0 2 -11 3 -25 3 -20 0
-25 -5 -25 -27z"/>
<path d="M24390 7998 c0 -20 1 -21 20 -3 11 10 20 20 20 22 0 1 -9 3 -20 3
-14 0 -20 -7 -20 -22z"/>
<path d="M23448 7869 c15 -14 101 -95 192 -179 91 -85 187 -174 213 -199 l49
-46 56 61 c32 34 125 135 209 226 l152 165 -449 -1 -450 -1 28 -26z"/>
</g>
</svg>
